<svg width="261" height="18" viewBox="0 0 261 18" fill="none" xmlns="http://www.w3.org/2000/svg">
<path d="M0.600007 17.1121C0.440007 17.1121 0.296007 17.0561 0.168007 16.9441C0.0560074 16.8161 7.33137e-06 16.6721 7.33137e-06 16.5121V0.91206C7.33137e-06 0.73606 0.0560074 0.59206 0.168007 0.48006C0.296007 0.36806 0.440007 0.312059 0.600007 0.312059H3.14401C3.54401 0.312059 3.81601 0.464059 3.96001 0.768059L9.81601 9.98406V0.91206C9.81601 0.73606 9.87201 0.59206 9.98401 0.48006C10.112 0.36806 10.256 0.312059 10.416 0.312059H13.296C13.472 0.312059 13.616 0.36806 13.728 0.48006C13.84 0.59206 13.896 0.73606 13.896 0.91206V16.4881C13.896 16.6641 13.84 16.8161 13.728 16.9441C13.616 17.0561 13.472 17.1121 13.296 17.1121H10.728C10.376 17.1121 10.112 16.9601 9.93601 16.6561L4.08001 7.77606V16.5121C4.08001 16.6721 4.02401 16.8161 3.91201 16.9441C3.80001 17.0561 3.65601 17.1121 3.48001 17.1121H0.600007ZM16.29 17.1121C16.162 17.1121 16.042 17.0641 15.93 16.9681C15.834 16.8561 15.786 16.7361 15.786 16.6081C15.786 16.5121 15.794 16.4401 15.81 16.3921L21.45 0.984059C21.498 0.79206 21.602 0.63206 21.762 0.50406C21.922 0.37606 22.13 0.312059 22.386 0.312059H25.938C26.194 0.312059 26.402 0.37606 26.562 0.50406C26.722 0.63206 26.826 0.79206 26.874 0.984059L32.49 16.3921L32.538 16.6081C32.538 16.7361 32.482 16.8561 32.37 16.9681C32.274 17.0641 32.154 17.1121 32.01 17.1121H29.058C28.674 17.1121 28.418 16.9441 28.29 16.6081L27.354 14.1601H20.946L20.034 16.6081C19.906 16.9441 19.642 17.1121 19.242 17.1121H16.29ZM26.394 10.7041L24.162 4.36806L21.93 10.7041H26.394ZM35.0297 17.1121C34.8697 17.1121 34.7257 17.0561 34.5977 16.9441C34.4857 16.8161 34.4297 16.6721 34.4297 16.5121V0.91206C34.4297 0.73606 34.4857 0.59206 34.5977 0.48006C34.7257 0.36806 34.8697 0.312059 35.0297 0.312059H37.6217C38.0057 0.312059 38.2857 0.48806 38.4617 0.84006L42.6857 8.40006L46.9097 0.84006C47.0857 0.48806 47.3657 0.312059 47.7497 0.312059H50.3177C50.4937 0.312059 50.6377 0.36806 50.7497 0.48006C50.8777 0.59206 50.9417 0.73606 50.9417 0.91206V16.5121C50.9417 16.6881 50.8777 16.8321 50.7497 16.9441C50.6377 17.0561 50.4937 17.1121 50.3177 17.1121H47.4617C47.2857 17.1121 47.1337 17.0561 47.0057 16.9441C46.8937 16.8321 46.8377 16.6881 46.8377 16.5121V7.51206L44.1497 12.5281C43.9417 12.8961 43.6617 13.0801 43.3097 13.0801H42.0617C41.8537 13.0801 41.6857 13.0321 41.5577 12.9361C41.4297 12.8401 41.3177 12.7041 41.2217 12.5281L38.5097 7.51206V16.5121C38.5097 16.6721 38.4537 16.8161 38.3417 16.9441C38.2297 17.0561 38.0857 17.1121 37.9097 17.1121H35.0297ZM53.3447 17.1121C53.2167 17.1121 53.0967 17.0641 52.9847 16.9681C52.8887 16.8561 52.8407 16.7361 52.8407 16.6081C52.8407 16.5121 52.8487 16.4401 52.8647 16.3921L58.5047 0.984059C58.5527 0.79206 58.6567 0.63206 58.8167 0.50406C58.9767 0.37606 59.1847 0.312059 59.4407 0.312059H62.9927C63.2487 0.312059 63.4567 0.37606 63.6167 0.50406C63.7767 0.63206 63.8807 0.79206 63.9287 0.984059L69.5447 16.3921L69.5927 16.6081C69.5927 16.7361 69.5367 16.8561 69.4247 16.9681C69.3287 17.0641 69.2087 17.1121 69.0647 17.1121H66.1127C65.7287 17.1121 65.4727 16.9441 65.3447 16.6081L64.4087 14.1601H58.0007L57.0887 16.6081C56.9607 16.9441 56.6967 17.1121 56.2967 17.1121H53.3447ZM63.4487 10.7041L61.2167 4.36806L58.9847 10.7041H63.4487ZM72.0844 17.1121C71.9244 17.1121 71.7804 17.0561 71.6524 16.9441C71.5404 16.8161 71.4844 16.6721 71.4844 16.5121V0.91206C71.4844 0.73606 71.5404 0.59206 71.6524 0.48006C71.7804 0.36806 71.9244 0.312059 72.0844 0.312059H74.6284C75.0284 0.312059 75.3004 0.464059 75.4444 0.768059L81.3004 9.98406V0.91206C81.3004 0.73606 81.3564 0.59206 81.4684 0.48006C81.5964 0.36806 81.7404 0.312059 81.9004 0.312059H84.7804C84.9564 0.312059 85.1004 0.36806 85.2124 0.48006C85.3244 0.59206 85.3804 0.73606 85.3804 0.91206V16.4881C85.3804 16.6641 85.3244 16.8161 85.2124 16.9441C85.1004 17.0561 84.9564 17.1121 84.7804 17.1121H82.2124C81.8604 17.1121 81.5964 16.9601 81.4204 16.6561L75.5644 7.77606V16.5121C75.5644 16.6721 75.5084 16.8161 75.3964 16.9441C75.2844 17.0561 75.1404 17.1121 74.9644 17.1121H72.0844ZM95.6704 17.3521C93.3664 17.3521 91.5664 16.7921 90.2704 15.6721C88.9744 14.5361 88.2864 12.9281 88.2064 10.8481C88.1904 10.3841 88.1824 9.64806 88.1824 8.64006C88.1824 7.63206 88.1904 6.89606 88.2064 6.43206C88.2864 4.40006 88.9824 2.83206 90.2944 1.72806C91.6224 0.62406 93.4144 0.0720596 95.6704 0.0720596C97.1904 0.0720596 98.5104 0.32006 99.6304 0.81606C100.766 1.31206 101.63 1.94406 102.222 2.71206C102.83 3.48006 103.15 4.27206 103.182 5.08806C103.182 5.23206 103.126 5.35206 103.014 5.44806C102.918 5.54406 102.798 5.59206 102.654 5.59206H99.1504C98.9904 5.59206 98.8624 5.56806 98.7664 5.52006C98.6704 5.47206 98.5904 5.38406 98.5264 5.25606C98.3184 4.79206 97.9904 4.39206 97.5424 4.05606C97.0944 3.70406 96.4704 3.52806 95.6704 3.52806C93.7664 3.52806 92.7664 4.53606 92.6704 6.55206C92.6544 7.00006 92.6464 7.69606 92.6464 8.64006C92.6464 9.56806 92.6544 10.2641 92.6704 10.7281C92.7664 12.8401 93.7904 13.8961 95.7424 13.8961C96.6864 13.8961 97.4384 13.6561 97.9984 13.1761C98.5744 12.6801 98.8624 11.9281 98.8624 10.9201V10.4641H96.6064C96.4304 10.4641 96.2864 10.4081 96.1744 10.2961C96.0624 10.1681 96.0064 10.0161 96.0064 9.84006V8.06406C96.0064 7.88806 96.0624 7.74406 96.1744 7.63206C96.2864 7.50406 96.4304 7.44006 96.6064 7.44006H102.654C102.83 7.44006 102.974 7.50406 103.086 7.63206C103.198 7.74406 103.254 7.88806 103.254 8.06406V10.8001C103.254 12.1601 102.942 13.3361 102.318 14.3281C101.694 15.3041 100.806 16.0561 99.6544 16.5841C98.5184 17.0961 97.1904 17.3521 95.6704 17.3521ZM104.673 17.1121C104.545 17.1121 104.425 17.0641 104.313 16.9681C104.217 16.8561 104.169 16.7361 104.169 16.6081C104.169 16.5121 104.177 16.4401 104.193 16.3921L109.833 0.984059C109.881 0.79206 109.985 0.63206 110.145 0.50406C110.305 0.37606 110.513 0.312059 110.769 0.312059H114.321C114.577 0.312059 114.785 0.37606 114.945 0.50406C115.105 0.63206 115.209 0.79206 115.257 0.984059L120.873 16.3921L120.921 16.6081C120.921 16.7361 120.865 16.8561 120.753 16.9681C120.657 17.0641 120.537 17.1121 120.393 17.1121H117.441C117.057 17.1121 116.801 16.9441 116.673 16.6081L115.737 14.1601H109.329L108.417 16.6081C108.289 16.9441 108.025 17.1121 107.625 17.1121H104.673ZM114.777 10.7041L112.545 4.36806L110.313 10.7041H114.777ZM123.413 17.1121C123.253 17.1121 123.109 17.0561 122.981 16.9441C122.869 16.8161 122.813 16.6721 122.813 16.5121V0.91206C122.813 0.73606 122.869 0.59206 122.981 0.48006C123.109 0.36806 123.253 0.312059 123.413 0.312059H125.957C126.357 0.312059 126.629 0.464059 126.773 0.768059L132.629 9.98406V0.91206C132.629 0.73606 132.685 0.59206 132.797 0.48006C132.925 0.36806 133.069 0.312059 133.229 0.312059H136.109C136.285 0.312059 136.429 0.36806 136.541 0.48006C136.653 0.59206 136.709 0.73606 136.709 0.91206V16.4881C136.709 16.6641 136.653 16.8161 136.541 16.9441C136.429 17.0561 136.285 17.1121 136.109 17.1121H133.541C133.189 17.1121 132.925 16.9601 132.749 16.6561L126.893 7.77606V16.5121C126.893 16.6721 126.837 16.8161 126.725 16.9441C126.613 17.0561 126.469 17.1121 126.293 17.1121H123.413ZM140.663 17.1121C140.503 17.1121 140.359 17.0561 140.231 16.9441C140.119 16.8161 140.063 16.6721 140.063 16.5121V0.91206C140.063 0.73606 140.119 0.59206 140.231 0.48006C140.359 0.36806 140.503 0.312059 140.663 0.312059H143.831C144.007 0.312059 144.151 0.36806 144.263 0.48006C144.375 0.59206 144.431 0.73606 144.431 0.91206V13.4881H151.703C151.879 13.4881 152.023 13.5521 152.135 13.6801C152.247 13.7921 152.303 13.9361 152.303 14.1121V16.5121C152.303 16.6721 152.247 16.8161 152.135 16.9441C152.023 17.0561 151.879 17.1121 151.703 17.1121H140.663ZM154.983 17.1121C154.823 17.1121 154.679 17.0561 154.551 16.9441C154.439 16.8161 154.383 16.6721 154.383 16.5121V0.91206C154.383 0.73606 154.439 0.59206 154.551 0.48006C154.679 0.36806 154.823 0.312059 154.983 0.312059H158.199C158.375 0.312059 158.519 0.36806 158.631 0.48006C158.759 0.59206 158.823 0.73606 158.823 0.91206V16.5121C158.823 16.6881 158.759 16.8321 158.631 16.9441C158.519 17.0561 158.375 17.1121 158.199 17.1121H154.983ZM162.764 17.1121C162.604 17.1121 162.46 17.0561 162.332 16.9441C162.22 16.8161 162.164 16.6721 162.164 16.5121V0.91206C162.164 0.73606 162.22 0.59206 162.332 0.48006C162.46 0.36806 162.604 0.312059 162.764 0.312059H165.788C165.964 0.312059 166.108 0.36806 166.22 0.48006C166.332 0.59206 166.388 0.73606 166.388 0.91206V6.24006L170.828 0.768059C171.02 0.464059 171.332 0.312059 171.764 0.312059H175.22C175.364 0.312059 175.484 0.36806 175.58 0.48006C175.676 0.57606 175.724 0.68806 175.724 0.81606C175.724 0.92806 175.7 1.02406 175.652 1.10406L169.892 8.35206L176.084 16.3201C176.148 16.3841 176.18 16.4801 176.18 16.6081C176.18 16.7361 176.132 16.8561 176.036 16.9681C175.94 17.0641 175.82 17.1121 175.676 17.1121H172.1C171.716 17.1121 171.396 16.9521 171.14 16.6321L166.388 10.7041V16.5121C166.388 16.6881 166.332 16.8321 166.22 16.9441C166.108 17.0561 165.964 17.1121 165.788 17.1121H162.764ZM178.678 17.1121C178.518 17.1121 178.374 17.0561 178.246 16.9441C178.134 16.8161 178.078 16.6721 178.078 16.5121V0.91206C178.078 0.73606 178.134 0.59206 178.246 0.48006C178.374 0.36806 178.518 0.312059 178.678 0.312059H181.846C182.022 0.312059 182.166 0.36806 182.278 0.48006C182.39 0.59206 182.446 0.73606 182.446 0.91206V13.4881H189.718C189.894 13.4881 190.038 13.5521 190.15 13.6801C190.262 13.7921 190.318 13.9361 190.318 14.1121V16.5121C190.318 16.6721 190.262 16.8161 190.15 16.9441C190.038 17.0561 189.894 17.1121 189.718 17.1121H178.678ZM191.438 17.1121C191.31 17.1121 191.19 17.0641 191.078 16.9681C190.982 16.8561 190.934 16.7361 190.934 16.6081C190.934 16.5121 190.942 16.4401 190.958 16.3921L196.598 0.984059C196.646 0.79206 196.75 0.63206 196.91 0.50406C197.07 0.37606 197.278 0.312059 197.534 0.312059H201.086C201.342 0.312059 201.55 0.37606 201.71 0.50406C201.87 0.63206 201.974 0.79206 202.022 0.984059L207.638 16.3921L207.686 16.6081C207.686 16.7361 207.63 16.8561 207.518 16.9681C207.422 17.0641 207.302 17.1121 207.158 17.1121H204.206C203.822 17.1121 203.566 16.9441 203.438 16.6081L202.502 14.1601H196.094L195.182 16.6081C195.054 16.9441 194.79 17.1121 194.39 17.1121H191.438ZM201.542 10.7041L199.31 4.36806L197.078 10.7041H201.542ZM210.178 17.1121C210.018 17.1121 209.874 17.0561 209.746 16.9441C209.634 16.8161 209.578 16.6721 209.578 16.5121V0.91206C209.578 0.73606 209.634 0.59206 209.746 0.48006C209.874 0.36806 210.018 0.312059 210.178 0.312059H216.706C218.802 0.312059 220.434 0.792059 221.602 1.75206C222.786 2.69606 223.378 4.04006 223.378 5.78406C223.378 6.90406 223.114 7.85606 222.586 8.64006C222.058 9.42406 221.33 10.0241 220.402 10.4401L223.69 16.3441C223.738 16.4401 223.762 16.5281 223.762 16.6081C223.762 16.7361 223.706 16.8561 223.594 16.9681C223.498 17.0641 223.386 17.1121 223.258 17.1121H220.066C219.602 17.1121 219.274 16.8961 219.082 16.4641L216.346 11.1841H213.898V16.5121C213.898 16.6881 213.834 16.8321 213.706 16.9441C213.594 17.0561 213.45 17.1121 213.274 17.1121H210.178ZM216.658 7.77606C217.394 7.77606 217.954 7.60006 218.338 7.24806C218.722 6.88006 218.914 6.37606 218.914 5.73606C218.914 5.09606 218.722 4.59206 218.338 4.22406C217.97 3.84006 217.41 3.64806 216.658 3.64806H213.898V7.77606H216.658ZM231.209 17.1121C231.033 17.1121 230.881 17.0561 230.753 16.9441C230.641 16.8321 230.585 16.6881 230.585 16.5121V14.8081C230.585 14.3281 230.785 13.9361 231.185 13.6321L233.681 11.1841C235.137 10.0641 236.241 9.19206 236.993 8.56806C237.745 7.94406 238.313 7.37606 238.697 6.86406C239.081 6.35206 239.273 5.86406 239.273 5.40006C239.273 4.13606 238.649 3.50406 237.401 3.50406C236.745 3.50406 236.241 3.70406 235.889 4.10406C235.537 4.48806 235.305 4.97606 235.193 5.56806C235.097 5.93606 234.825 6.12006 234.377 6.12006H231.377C231.233 6.12006 231.113 6.07206 231.017 5.97606C230.921 5.88006 230.873 5.76006 230.873 5.61606C230.905 4.59206 231.185 3.65606 231.713 2.80806C232.257 1.94406 233.017 1.26406 233.993 0.768059C234.985 0.256059 236.121 5.91278e-05 237.401 5.91278e-05C238.745 5.91278e-05 239.897 0.216059 240.857 0.648059C241.817 1.08006 242.545 1.68806 243.041 2.47206C243.537 3.25606 243.785 4.16806 243.785 5.20806C243.785 6.32806 243.433 7.35206 242.729 8.28006C242.041 9.19206 240.985 10.1841 239.561 11.2561L237.353 13.4881H243.521C243.697 13.4881 243.841 13.5441 243.953 13.6561C244.081 13.7681 244.145 13.9121 244.145 14.0881V16.5121C244.145 16.6881 244.081 16.8321 243.953 16.9441C243.841 17.0561 243.697 17.1121 243.521 17.1121H231.209ZM254.429 17.1121C254.269 17.1121 254.125 17.0561 253.997 16.9441C253.885 16.8161 253.829 16.6721 253.829 16.5121V13.8001H246.365C246.189 13.8001 246.045 13.7441 245.933 13.6321C245.821 13.5201 245.765 13.3761 245.765 13.2001V10.9201C245.765 10.6801 245.853 10.4321 246.029 10.1761L253.013 0.72006C253.237 0.44806 253.533 0.312059 253.901 0.312059H257.405C257.581 0.312059 257.725 0.36806 257.837 0.48006C257.949 0.59206 258.005 0.73606 258.005 0.91206V10.2241H260.117C260.309 10.2241 260.461 10.2881 260.573 10.4161C260.685 10.5281 260.741 10.6641 260.741 10.8241V13.2001C260.741 13.3761 260.685 13.5201 260.573 13.6321C260.461 13.7441 260.317 13.8001 260.141 13.8001H258.005V16.5121C258.005 16.6721 257.949 16.8161 257.837 16.9441C257.725 17.0561 257.581 17.1121 257.405 17.1121H254.429ZM253.925 10.3921V4.72806L249.893 10.3921H253.925Z" fill="white"/>
</svg>
